HIERARCHY
ROOT hip
{
	OFFSET 0.000000 0.000000 0.000000
	CHANNELS 6 Xposition Yposition Zposition Xrotation Zrotation Yrotation 
	JOINT abdomen
	{
		OFFSET 0.000000 3.422050 0.000000
		CHANNELS 3 Xrotation Zrotation Yrotation 
		JOINT chest
		{
			OFFSET 0.000000 8.486693 -0.684411
			CHANNELS 3 Xrotation Zrotation Yrotation 
			JOINT neck
			{
				OFFSET 0.000000 10.266162 -0.273764
				CHANNELS 3 Xrotation Zrotation Yrotation 
				JOINT head
				{
					OFFSET 0.000000 3.148285 0.000000
					CHANNELS 3 Xrotation Zrotation Yrotation 
					End Site
					{
						OFFSET 0.000000 3.148289 0.000000
					}
				}
			}
			JOINT lCollar
			{
				OFFSET 3.422053 6.707223 -0.821293
				CHANNELS 3 Yrotation Zrotation Xrotation 
				JOINT lShldr
				{
					OFFSET 3.285171 0.000000 0.000000
					CHANNELS 3 Zrotation Yrotation Xrotation 
					JOINT lForeArm
					{
						OFFSET 10.129278 0.000000 0.000000
						CHANNELS 3 Yrotation Zrotation Xrotation 
						JOINT lHand
						{
							OFFSET 8.486692 0.000000 0.000000
							CHANNELS 3 Zrotation Yrotation Xrotation 
							End Site
							{
								OFFSET 4.106464 0.000000 0.000000
							}
						}
					}
				}
			}
			JOINT rCollar
			{
				OFFSET -3.558935 6.707223 -0.821293
				CHANNELS 3 Yrotation Zrotation Xrotation 
				JOINT rShldr
				{
					OFFSET -3.148289 0.000000 0.000000
					CHANNELS 3 Zrotation Yrotation Xrotation 
					JOINT rForeArm
					{
						OFFSET -10.266159 0.000000 0.000000
						CHANNELS 3 Yrotation Zrotation Xrotation 
						JOINT rHand
						{
							OFFSET -8.349810 0.000000 0.000000
							CHANNELS 3 Zrotation Yrotation Xrotation 
							End Site
							{
								OFFSET -4.106464 0.000000 0.000000
							}
						}
					}
				}
			}
		}
	}
	JOINT lThigh
	{
		OFFSET 5.338403 -1.642589 1.368821
		CHANNELS 3 Xrotation Zrotation Yrotation 
		JOINT lShin
		{
			OFFSET -2.053232 -20.121670 0.000000
			CHANNELS 3 Xrotation Zrotation Yrotation 
			JOINT lFoot
			{
				OFFSET 0.000000 -19.300380 -1.231939
				CHANNELS 3 Xrotation Yrotation Zrotation 
				End Site
				{
					OFFSET 0.000000 -2.463878 4.653993
				}
			}
		}
	}
	JOINT rThigh
	{
		OFFSET -5.338403 -1.642589 1.368821
		CHANNELS 3 Xrotation Zrotation Yrotation 
		JOINT rShin
		{
			OFFSET 2.053232 -20.121670 0.000000
			CHANNELS 3 Xrotation Zrotation Yrotation 
			JOINT rFoot
			{
				OFFSET 0.000000 -19.300380 -1.231939
				CHANNELS 3 Xrotation Yrotation Zrotation 
				End Site
				{
					OFFSET 0.000000 -2.463878 4.653993
				}
			}
		}
	}
}
MOTION
Frames: 18
Frame Time: 0.033264
0.820027 30.601761 2.136254 31.874119 0.000000 0.000000 3.219784 0.609235 -0.240925 -18.558403 0.568822 -1.137629 18.683437 6.226143 2.222323 6.160114 1.042158 9.258071 -35.397160 -7.202995 -27.560240 -48.711880 15.291021 57.498985 -34.175663 -7.571064 -0.807258 24.908039 -14.484200 -40.778519 25.305153 10.083873 10.489919 45.959942 -24.079576 -4.010334 86.328903 27.568407 -21.568083 -33.971729 12.908182 -22.551573 -29.352486 60.478298 -7.229824 83.568352 0.036154 -0.416208 67.666275 12.913353 -36.695923 -29.342697 -60.500820 7.201454 83.563187 -0.053611 0.411736 67.660164 -12.929308 36.663410 
0.820027 30.639158 2.064765 32.249619 0.000000 0.000000 3.044769 0.609276 -0.240881 -18.833687 0.568888 -1.137584 18.674431 6.524016 2.328262 6.406352 1.030126 9.331594 -35.463428 -7.387175 -27.582918 -48.549435 15.250829 57.535118 -34.175663 -7.571064 -0.807258 24.793365 -14.513045 -40.842876 25.305153 10.083873 10.489919 45.959942 -24.079576 -4.010334 86.328903 27.568407 -21.568083 -33.971729 12.908183 -22.551573 -30.208405 60.210747 -7.838360 83.769073 0.045643 -0.415690 67.803406 12.846308 -37.000820 -30.199312 -60.233139 7.810629 83.763695 -0.062994 0.410686 67.797623 -12.862340 36.968319 
0.820027 30.676554 1.993277 32.625111 0.000000 0.000000 2.869754 0.609317 -0.240837 -19.108967 0.568953 -1.137539 18.665974 6.821973 2.434243 6.652478 1.017784 9.405033 -35.529804 -7.571329 -27.605825 -48.387047 15.210538 57.571117 -34.175659 -7.571063 -0.807259 24.678711 -14.542012 -40.907181 25.305153 10.083873 10.489919 45.959942 -24.079576 -4.010334 86.328903 27.568407 -21.568083 -33.971729 12.908182 -22.551573 -31.051537 59.938747 -8.433832 83.969818 0.055129 -0.415138 67.940102 12.778553 -37.305450 -31.043156 -59.961063 8.406738 83.964195 -0.072373 0.409604 67.934654 -12.794663 37.272961 
0.820027 30.713951 1.921789 33.000557 0.000000 0.000000 2.694742 0.609358 -0.240793 -19.384232 0.569019 -1.137495 18.658064 7.120008 2.540269 6.898492 1.005132 9.478395 -35.596279 -7.755449 -27.628950 -48.224735 15.170155 57.607006 -34.175659 -7.571063 -0.807259 24.564075 -14.571104 -40.971428 25.305153 10.083873 10.489919 45.959942 -24.079576 -4.010334 86.328903 27.568407 -21.568083 -33.971725 12.908182 -22.551571 -31.882036 59.662487 -9.016382 84.170547 0.064613 -0.414554 68.076385 12.710094 -37.609821 -31.874311 -59.684689 8.989880 84.164680 -0.081749 0.408489 68.071297 -12.726282 37.577354 
0.820027 30.751347 1.850301 33.375988 0.000000 0.000000 2.519734 0.609399 -0.240750 -19.659485 0.569085 -1.137452 18.650703 7.418120 2.646346 7.144392 0.992170 9.551671 -35.662865 -7.939542 -27.652311 -48.062466 15.129666 57.642761 -34.175659 -7.571063 -0.807259 24.449457 -14.600315 -41.035629 25.305153 10.083873 10.489919 45.959942 -24.079576 -4.010334 86.328903 27.568407 -21.568083 -33.971729 12.908182 -22.551573 -32.700016 59.382088 -9.586122 84.371277 0.074095 -0.413936 68.212257 12.640933 -37.913925 -32.692955 -59.404205 9.560201 84.365166 -0.091119 0.407342 68.207512 -12.657193 37.881470 
0.820027 30.788744 1.778812 33.751373 0.000000 0.000000 2.344730 0.609441 -0.240707 -19.934731 0.569151 -1.137408 18.643894 7.716298 2.752477 7.390172 0.978899 9.624860 -35.729534 -8.123598 -27.675880 -47.900257 15.089084 57.678379 -34.175663 -7.571064 -0.807258 24.334860 -14.629652 -41.099770 25.305153 10.083873 10.489919 45.959942 -24.079576 -4.010334 86.328903 27.568407 -21.568083 -33.971729 12.908182 -22.551573 -33.505634 59.097721 -10.143209 84.571999 0.083575 -0.413284 68.347717 12.571080 -38.217762 -33.499149 -59.119644 10.117824 84.565643 -0.100486 0.406161 68.343300 -12.587411 38.185310 
0.820027 30.826139 1.707324 34.126724 0.000000 0.000000 2.169730 0.609483 -0.240663 -20.209951 0.569218 -1.137365 18.637640 8.014537 2.858666 7.635826 0.965320 9.697955 -35.796322 -8.307624 -27.699686 -47.738121 15.048411 57.713890 -34.175659 -7.571063 -0.807259 24.220284 -14.659115 -41.163860 25.305153 10.083873 10.489919 45.959942 -24.079576 -4.010334 86.328903 27.568407 -21.568083 -33.971729 12.908183 -22.551573 -34.299015 58.809444 -10.687778 84.772713 0.093051 -0.412600 68.482727 12.500525 -38.521313 -34.293118 -58.831253 10.662910 84.766121 -0.109848 0.404948 68.478653 -12.516932 38.488876 
0.820027 30.863537 1.635836 34.502007 0.000000 0.000000 1.994737 0.609524 -0.240620 -20.485151 0.569284 -1.137322 18.631937 8.312837 2.964918 7.881361 0.951435 9.770967 -35.863213 -8.491614 -27.723721 -47.576031 15.007633 57.749249 -34.175659 -7.571063 -0.807259 24.105732 -14.688698 -41.227901 25.305153 10.083873 10.489919 45.959942 -24.079576 -4.010334 86.328903 27.568407 -21.568083 -33.971729 12.908182 -22.551573 -35.080303 58.517406 -11.219982 84.973427 0.102525 -0.411882 68.617302 12.429291 -38.824577 -35.074982 -58.539112 11.195621 84.966583 -0.119205 0.403702 68.613571 -12.445761 38.792152 
0.820027 30.900932 1.564347 34.877216 0.000000 0.000000 1.819749 0.609566 -0.240577 -20.760323 0.569351 -1.137280 18.626783 8.611181 3.071236 8.126767 0.937242 9.843884 -35.930214 -8.675565 -27.747978 -47.414021 14.966766 57.784500 -34.175659 -7.571063 -0.807259 23.991203 -14.718409 -41.291885 25.305151 10.083873 10.489918 45.959942 -24.079576 -4.010334 86.328903 27.568407 -21.568083 -33.971725 12.908182 -22.551571 -35.849689 58.221764 -11.740003 85.174126 0.111996 -0.411132 68.751434 12.357359 -39.127544 -35.844894 -58.243320 11.716108 85.167038 -0.128558 0.402424 68.748055 -12.373902 39.095131 
0.820027 30.938330 1.492859 35.252365 0.000000 0.000000 1.644770 0.609608 -0.240534 -21.035467 0.569418 -1.137238 18.622194 8.909576 3.177627 8.372044 0.922745 9.916704 -35.997322 -8.859481 -27.772470 -47.252060 14.925801 57.819614 -34.175663 -7.571064 -0.807258 23.876692 -14.748239 -41.355808 25.305151 10.083873 10.489918 45.959942 -24.079576 -4.010334 86.328903 27.568407 -21.568083 -33.971729 12.908182 -22.551573 -36.607327 57.922623 -12.247999 85.374809 0.121463 -0.410348 68.885139 12.284757 -39.430233 -36.603069 -57.944061 12.224564 85.367493 -0.137905 0.401113 68.882088 -12.301359 39.397823 
0.820027 30.975725 1.421371 35.627430 0.000000 0.000000 1.469798 0.609650 -0.240491 -21.310577 0.569485 -1.137196 18.618151 9.208006 3.284091 8.617188 0.907942 9.989429 -36.064541 -9.043356 -27.797188 -47.090164 14.884741 57.854599 -34.175659 -7.571063 -0.807259 23.762205 -14.778192 -41.419685 25.305151 10.083873 10.489918 45.959942 -24.079576 -4.010334 86.328903 27.568407 -21.568083 -33.971729 12.908184 -22.551573 -37.353390 57.620090 -12.744147 85.575493 0.130928 -0.409531 69.018372 12.211464 -39.732594 -37.349625 -57.641388 12.721140 85.567924 -0.147247 0.399769 69.015678 -12.228141 39.700207 
0.820027 31.013123 1.349882 36.002411 0.000000 0.000000 1.294835 0.609693 -0.240448 -21.585659 0.569553 -1.137155 18.614676 9.506476 3.390638 8.862194 0.892836 10.062055 -36.131870 -9.227192 -27.822138 -46.928333 14.843593 57.889473 -34.175659 -7.571063 -0.807259 23.647738 -14.808264 -41.483501 25.305155 10.083874 10.489920 45.959942 -24.079576 -4.010334 86.328903 27.568407 -21.568083 -33.971729 12.908182 -22.551573 -38.088078 57.314323 -13.228639 85.776146 0.140388 -0.408681 69.151169 12.137508 -40.034672 -38.084778 -57.335476 13.206033 85.768349 -0.156584 0.398393 69.148811 -12.154246 40.002289 
0.820027 31.050518 1.278394 36.377293 0.000000 0.000000 1.119882 0.609735 -0.240406 -21.860699 0.569621 -1.137113 18.611755 9.804973 3.497267 9.107065 0.877427 10.134582 -36.199303 -9.410986 -27.847309 -46.766567 14.802350 57.924198 -34.175659 -7.571063 -0.807259 23.533298 -14.838463 -41.547264 25.305155 10.083874 10.489920 45.959942 -24.079576 -4.010334 86.328903 27.568407 -21.568083 -33.971729 12.908182 -22.551573 -38.811543 57.005405 -13.701643 85.976799 0.149845 -0.407798 69.283485 12.062881 -40.336418 -38.808701 -57.026417 13.679431 85.968758 -0.165915 0.396984 69.281487 -12.079679 40.304054 
0.820027 31.087915 1.206905 36.752068 0.000000 0.000000 0.944939 0.609778 -0.240363 -22.135695 0.569688 -1.137072 18.609398 10.103492 3.603986 9.351795 0.861716 10.207006 -36.266857 -9.594735 -27.872721 -46.604866 14.761009 57.958801 -34.175663 -7.571064 -0.807258 23.418884 -14.868784 -41.610970 25.305155 10.083874 10.489920 45.959942 -24.079576 -4.010334 86.328903 27.568407 -21.568083 -33.971729 12.908183 -22.551573 -39.523987 56.693459 -14.163360 86.177422 0.159298 -0.406882 69.415344 11.987588 -40.637852 -39.521572 -56.714321 14.141509 86.169144 -0.175241 0.395543 69.413689 -12.004437 40.605492 
0.820027 31.125311 1.135417 37.126728 0.000000 0.000000 0.770009 0.609821 -0.240321 -22.410652 0.569756 -1.137032 18.607605 10.402028 3.710797 9.596382 0.845704 10.279326 -36.334534 -9.778443 -27.898367 -46.443233 14.719582 57.993267 -34.175659 -7.571063 -0.807259 23.304493 -14.899224 -41.674622 25.305155 10.083874 10.489920 45.959942 -24.079576 -4.010334 86.328903 27.568407 -21.568083 -33.971729 12.908182 -22.551573 -40.225605 56.378620 -14.613977 86.378052 0.168747 -0.405933 69.546745 11.911634 -40.938969 -40.223606 -56.399330 14.592476 86.369522 -0.184560 0.394069 69.545410 -11.928541 40.906605 
0.820027 31.162708 1.063929 37.501274 0.000000 0.000000 0.595090 0.609863 -0.240279 -22.685551 0.569824 -1.136991 18.606375 10.700577 3.817706 9.840818 0.829391 10.351538 -36.402313 -9.962099 -27.924234 -46.281662 14.678060 58.027615 -34.175659 -7.571063 -0.807259 23.190121 -14.929785 -41.738213 25.305155 10.083874 10.489920 45.959942 -24.079576 -4.010334 86.328903 27.568407 -21.568083 -33.971729 12.908182 -22.551573 -40.916576 56.060966 -15.053688 86.578629 0.178192 -0.404950 69.677658 11.835021 -41.239742 -40.914986 -56.081547 15.032519 86.569862 -0.193874 0.392562 69.676674 -11.851985 41.207397 
0.820027 31.200104 0.992440 37.875694 0.000000 0.000000 0.420184 0.609906 -0.240237 -22.960411 0.569893 -1.136952 18.605713 10.999133 3.924717 10.085113 0.812780 10.423646 -36.470211 -10.145711 -27.950344 -46.120171 14.636456 58.061840 -34.175659 -7.571063 -0.807259 23.075783 -14.960467 -41.801750 25.305153 10.083873 10.489919 45.959942 -24.079576 -4.010334 86.328903 27.568407 -21.568083 -33.971729 12.908182 -22.551573 -41.597111 55.740631 -15.482687 86.779205 0.187632 -0.403935 69.808075 11.757751 -41.540176 -41.595871 -55.761040 15.461815 86.770203 -0.203181 0.391024 69.807449 -11.774774 41.507851 
0.820027 31.237501 0.920952 38.249969 0.000000 0.000000 0.245292 0.609949 -0.240195 -23.235212 0.569961 -1.136912 18.605618 11.297688 4.031834 10.329251 0.795870 10.495640 -36.538219 -10.329272 -27.976677 -45.958740 14.594753 58.095924 -34.175663 -7.571064 -0.807258 22.961466 -14.991272 -41.865227 25.305153 10.083873 10.489919 45.959942 -24.079576 -4.010334 86.328903 27.568407 -21.568083 -33.971729 12.908182 -22.551573 -42.267353 55.417690 -15.901147 86.979767 0.197068 -0.402887 69.938034 11.679841 -41.840290 -42.266495 -55.437958 15.880583 86.970528 -0.212482 0.389453 69.937759 -11.696915 41.807968 
